<?xml version="1.0" ?><!DOCTYPE svg  PUBLIC '-//W3C//DTD SVG 1.1//EN'  'http://www.w3.org/Graphics/SVG/1.1/DTD/svg11.dtd'><svg enable-background="new 0 0 500 500" height="500px" id="Layer_1" version="1.1" viewBox="0 0 500 500" width="500px" xml:space="preserve" xmlns="http://www.w3.org/2000/svg" xmlns:xlink="http://www.w3.org/1999/xlink"><path clip-rule="evenodd" d="M468.051,195.31c0-9.909-8.181-17.993-18.172-17.993  c-4.993,0-9.537,2.004-12.812,5.27l-78.041,67.148V195.31c0-9.909-8.182-17.993-18.174-17.993c-4.993,0-9.536,2.004-12.811,5.27  L250,249.735V195.31c0-9.909-8.181-17.993-18.17-17.993c-4.996,0-9.539,2.004-12.813,5.27l-78.857,67.777L122.802,51.938  c0-11.082-8.907-19.989-19.989-19.989H70.108c-11.081,0-19.989,8.907-19.989,19.989l-18.17,379.773  c0,20.078,16.264,36.34,36.34,36.34h363.421c20.078,0,36.34-16.262,36.34-36.34V195.31z M204.574,312.418v20.529  c0,9.362-7.631,16.991-16.992,16.991H167.05c-9.359,0-16.99-7.629-16.99-16.991v-20.529c0-9.361,7.63-16.991,16.99-16.991h20.532  C196.943,295.427,204.574,303.057,204.574,312.418z M313.599,312.418v20.529c0,9.362-7.63,16.991-16.991,16.991h-20.53  c-9.36,0-16.991-7.629-16.991-16.991v-20.529c0-9.361,7.631-16.991,16.991-16.991h20.53  C305.969,295.427,313.599,303.057,313.599,312.418z M422.624,312.418v20.529c0,9.362-7.63,16.991-16.991,16.991h-20.529  c-9.362,0-16.991-7.629-16.991-16.991v-20.529c0-9.361,7.629-16.991,16.991-16.991h20.529  C414.994,295.427,422.624,303.057,422.624,312.418z" fill="#010101" fill-rule="evenodd"/></svg>